# xmcd
#
# Track frame offsets:
#	150
#	577
#	25224
#	48800
#	70227
#	95141
#	116648
#	138115
#	158961
#	181944
#	207980
#	230635
#	254059
#	275452
#	295815
#	320510
#
# Disc length: 4591 seconds
#
# Revision: 0
# Processed by: cddbd v1.5.2PL0 Copyright (c) Steve Scherf et al.
# Submitted via: dBpowerAMP V4.0
#
DISCID=e811ed10
DTITLE=David Baldacci - Kamelklubben
DYEAR=2005
DGENRE=CD-BOK
TTITLE0=10.01
TTITLE1=10.02
TTITLE2=10.03
TTITLE3=10.04
TTITLE4=10.05
TTITLE5=10.06
TTITLE6=10.07
TTITLE7=10.08
TTITLE8=10.09
TTITLE9=10.10
TTITLE10=10.11
TTITLE11=10.12
TTITLE12=10.13
TTITLE13=10.14
TTITLE14=10.15
TTITLE15=10.16
EXTD=
EXTT0=
EXTT1=
EXTT2=
EXTT3=
EXTT4=
EXTT5=
EXTT6=
EXTT7=
EXTT8=
EXTT9=
EXTT10=
EXTT11=
EXTT12=
EXTT13=
EXTT14=
EXTT15=
PLAYORDER=
